<svg width="169" height="137" viewBox="0 0 169 137" fill="none" xmlns="http://www.w3.org/2000/svg">
<circle cx="84" cy="56" r="56" fill="#FFFDFA"/>
<path d="M83.0616 60.3502L83.4444 52.8541C83.4722 52.3151 83.8779 51.8754 84.4032 51.8151L92.5001 50.8783C93.1205 50.8074 93.6714 51.2847 93.7027 51.9208L94.1981 62.0388C94.228 62.6508 93.7632 63.1714 93.1622 63.1962L91.544 63.265C91.2224 63.2792 90.9111 63.1451 90.695 62.9005L89.6619 61.7289C89.4493 61.4878 89.1429 61.3545 88.8247 61.3644L84.1753 61.5119C83.543 61.5317 83.0282 60.9956 83.0616 60.3502ZM98.02 49.0642L122.785 51.1996C123.429 51.2556 123.961 51.7286 124.102 52.3718C124.448 53.9498 125.063 56.9426 125.284 59.1758C125.434 60.7034 125.493 62.0147 125.516 62.965C125.536 63.8494 124.822 64.5671 123.955 64.5338L100.353 63.6302C98.7836 63.5707 97.5003 62.3331 97.353 60.7367L96.4248 50.7081C96.3387 49.7727 97.1029 48.9847 98.02 49.0642ZM80.5347 73.7617L89.1651 73.7873L89.3708 76.907L95.4827 76.7056L125.285 77.2871L126.679 77.1822C126.679 77.1822 127.059 75.7056 127.069 72.0944C127.08 68.4832 126.493 67.2776 126.493 67.2776L99.4249 66.4308L95.2437 66.4734L99.47 66.194L126.481 66.7329C126.443 65.4394 126.294 61.97 125.716 57.7546C124.981 52.3896 124.768 51.8421 124.768 51.8421L125.251 51.6244C125.251 51.6244 125.366 49.1082 122.043 48.7153C118.721 48.3224 95.944 46.5941 95.944 46.5941C95.944 46.5941 89.5111 46.648 86.079 47.0756C82.6475 47.504 81.4629 49.2507 81.2385 52.8612C81.0134 56.4724 80.5347 73.7617 80.5347 73.7617Z" fill="#4D4C4E"/>
<path d="M121.982 79.2673L103.47 78.8437C103.397 78.8428 103.339 78.7633 103.337 78.6644L103.307 77.2871L122.088 77.4877L122.119 79.0734C122.121 79.1394 122.1 79.1849 122.081 79.2121C122.062 79.2373 122.039 79.2654 121.982 79.2673Z" fill="#4D4C4E"/>
<path d="M95.746 81.7967C95.7474 81.4437 96.0299 81.1593 96.3773 81.1607L101.058 81.1739C101.398 81.1746 101.675 81.4493 101.685 81.7939L101.713 82.7822C101.724 83.1428 101.438 83.4405 101.083 83.4391L96.3711 83.4252C96.0237 83.4238 95.7426 83.1379 95.7433 82.785L95.746 81.7967ZM95.7343 86.0028C95.735 85.6505 96.0175 85.3661 96.3656 85.3668L101.046 85.38C101.386 85.3814 101.664 85.6561 101.673 86L101.701 86.989C101.712 87.3489 101.426 87.646 101.07 87.6453L96.3587 87.6313C96.0113 87.6306 95.7302 87.344 95.7315 86.9917L95.7343 86.0028ZM104.836 81.3647C104.837 81.2732 104.91 81.1998 105 81.2005L121.164 81.32C121.254 81.32 121.327 81.3955 121.326 81.4871C121.325 81.5779 121.253 81.6513 121.163 81.6506L104.999 81.5311C104.908 81.5304 104.835 81.4563 104.836 81.3647ZM104.848 82.3146C104.849 82.223 104.923 82.1496 105.012 82.1503H105.013L121.161 82.2594C121.251 82.2601 121.325 82.3348 121.324 82.4264C121.323 82.5173 121.25 82.5913 121.16 82.5906L105.011 82.4816C104.921 82.4809 104.848 82.4061 104.848 82.3146ZM104.861 83.2651C104.861 83.1735 104.934 83.1002 105.025 83.1002L121.158 83.1994C121.249 83.2001 121.322 83.2742 121.321 83.3658C121.32 83.4573 121.247 83.5314 121.157 83.5307C121.157 83.5307 121.157 83.5307 121.156 83.5307L105.023 83.4314C104.933 83.4307 104.86 83.3567 104.861 83.2651ZM104.873 84.2149C104.874 84.1234 104.947 84.0507 105.037 84.0507C105.037 84.0507 105.037 84.0507 105.038 84.0507L121.156 84.1395C121.246 84.1402 121.318 84.2142 121.318 84.3058C121.318 84.3974 121.244 84.4708 121.154 84.4701H121.154L105.036 84.3813C104.945 84.3806 104.873 84.3065 104.873 84.2149ZM104.886 85.1648C104.886 85.0746 104.959 85.0005 105.05 85.0005C105.05 85.0005 105.05 85.0005 105.05 85.0005L121.153 85.0788C121.243 85.0795 121.316 85.1543 121.316 85.2459C121.315 85.3367 121.242 85.4101 121.152 85.4101L105.048 85.3318C104.958 85.3311 104.886 85.257 104.886 85.1648ZM104.899 86.116C104.899 86.0244 104.972 85.9504 105.062 85.9504L121.15 86.0188C121.24 86.0195 121.313 86.0943 121.313 86.1852C121.312 86.2768 121.239 86.3508 121.149 86.3501L105.061 86.2816C104.971 86.2816 104.898 86.2076 104.899 86.116ZM104.911 87.0658C104.911 86.9743 104.985 86.9009 105.074 86.9009L121.147 86.9589C121.238 86.9596 121.31 87.0337 121.31 87.1245C121.31 87.2161 121.236 87.2902 121.146 87.2895L105.073 87.2315C104.983 87.2315 104.91 87.1574 104.911 87.0658ZM104.923 88.0164C104.923 87.9248 104.997 87.8507 105.087 87.8507L121.145 87.8989C121.235 87.8989 121.307 87.973 121.307 88.0646C121.307 88.1561 121.234 88.2296 121.143 88.2296L105.086 88.182C104.996 88.182 104.923 88.1072 104.923 88.0164ZM78.5544 78.6005C78.5544 78.6005 80.522 78.4978 83.3668 78.5872C86.2109 78.6767 87.0475 83.667 87.204 84.6923C87.3604 85.7169 87.3577 86.6339 87.3577 86.6339L88.2618 86.6367L88.248 91.4362L94.336 91.4537L94.3684 80.1836L94.9321 91.2524C94.9549 91.6997 95.3174 92.0498 95.7584 92.0512L125.182 92.1386C126.114 92.1414 126.87 91.3719 126.865 90.4269L126.852 88.2246L123.935 88.2163C123.858 88.2163 123.785 88.1995 123.717 88.1736L123.093 88.1778L123.629 88.1317C123.437 88.0213 123.307 87.8151 123.308 87.5767L123.311 86.5878C123.311 86.2355 123.594 85.9504 123.941 85.9511L127.069 85.9609L127.04 84.1269L126.78 84.0185L123.947 84.0102C123.599 84.0088 123.319 83.7229 123.32 83.37L123.322 82.3817C123.324 82.0287 123.606 81.7443 123.954 81.7457L126.656 81.7533L126.657 81.5912L126.889 80.9447L126.892 79.9383C126.892 79.9383 126.787 79.3449 126.008 79.1813C125.229 79.0171 125.32 78.1546 125.32 78.1546L122.557 78.1322L122.608 79.2212C122.623 79.5308 122.51 79.8355 122.297 80.0585C122.087 80.2772 121.796 80.4016 121.495 80.4009C121.491 80.4009 121.485 80.4009 121.481 80.4009L103.436 80.0955C102.841 80.0857 102.361 79.6056 102.344 79.0031L102.314 77.9722L96.3249 77.9247L92.0349 78.0561L92.17 80.3576L90.9729 77.6933L89.2004 77.5438L88.9344 74.5055L79.8962 74.3168C79.8962 74.3168 78.8322 74.5838 78.6964 75.635C78.56 76.6862 78.5544 78.6005 78.5544 78.6005Z" fill="#4D4C4E"/>
<path d="M95.7116 46.4934C95.7116 46.4934 88.8895 46.5495 85.2504 46.9942C84.5925 47.0755 84.0156 47.2025 83.5049 47.3761C83.5116 43.9613 83.5212 42.0407 84.2395 41.1876C85.7043 38.8135 98.863 39.5913 110.225 40.9652C110.351 40.9785 110.473 40.9918 110.584 41.0088C115.871 41.7999 120.311 46.4269 122.119 48.5742C116.042 48.0077 95.7116 46.4934 95.7116 46.4934Z" fill="#4D4C4E"/>
<path d="M91.2667 52.5506L93.9 53.0438C94.1683 53.0933 94.3544 53.2539 94.3544 53.4367L94.396 61.0326C94.3982 61.3258 93.946 61.5251 93.5332 61.4147L90.8254 60.6921C90.5889 60.629 90.4345 60.4785 90.4356 60.3107L90.4674 52.9442C90.4696 52.6718 90.8671 52.4761 91.2667 52.5506Z" fill="#4D4C4E"/>
<path d="M93.5559 51.6883L94.3185 51.5446L94.396 51.8715L93.6334 52.0146C93.1706 52.102 92.8328 52.472 92.8312 52.8927L92.7908 65.4059L92.4158 65.4053L92.457 52.892C92.4586 52.3141 92.9214 51.8074 93.5559 51.6883Z" fill="#4D4C4E"/>
<path d="M81.7229 89.1637C81.7288 87.442 82.5316 86.0483 83.5153 86.0509C84.4991 86.0535 85.2922 87.4518 85.2863 89.1729C85.2803 90.8953 84.4783 92.2883 83.4946 92.2864C82.5108 92.2838 81.7177 90.8855 81.7229 89.1637ZM79.5446 89.1585C79.532 92.9861 81.2948 96.0931 83.482 96.099C85.6691 96.1049 87.4527 93.0064 87.4653 89.1787C87.4779 85.3511 85.7151 82.2435 83.5279 82.2376C81.3408 82.2324 79.5572 85.3309 79.5446 89.1585Z" fill="#4D4C4E"/>
<path d="M86.7943 88.7343C86.7973 87.8505 86.7293 86.9987 86.6023 86.198L87.4281 86.2009L87.4133 91.2042L90.4357 91.213C89.8898 94.6213 88.2642 97.0949 86.3519 97.0891L82.5149 97.0782C84.8651 97.0847 86.781 93.3492 86.7943 88.7343Z" fill="#4D4C4E"/>
<path d="M82.5149 80.2574L85.2285 80.2663C85.9559 82.1058 86.2573 84.2024 86.3485 84.8904C86.4115 85.3602 86.4502 85.8123 86.4753 86.198C85.7927 82.698 84.2794 80.2627 82.5149 80.2574Z" fill="#4D4C4E"/>
<path d="M119.149 91.1764C118.677 93.8176 117.262 95.7387 115.593 95.7344L112.258 96.0584C112.122 96.085 111.983 96.099 111.842 96.099C110.094 96.0947 108.638 93.9832 108.257 91.1485L119.149 91.1764Z" fill="#4D4C4E"/>
<path d="M84.4152 40.8887C83.5579 41.9501 83.5537 43.8562 83.548 47.2785V47.3018C81.4732 48.2175 80.4927 50.0631 80.2924 53.2031C80.0658 56.7493 79.5979 73.166 79.5752 73.967L79.2383 73.9599C79.2383 73.9599 78.885 74.0472 78.5544 74.3168L78.7987 37.6832L94.396 39.0804C88.6556 38.9811 85.3093 39.583 84.4152 40.8887Z" fill="#4D4C4E"/>
<path d="M78.7237 78.2772L83.7691 78.2923C84.6161 78.2954 85.4851 80.2328 85.4851 80.2328L82.3066 80.2222C82.3066 80.2222 77.2761 81.6199 78.6741 92.1386L77.502 92.1348L76.5742 91.6654C76.5742 91.6654 76.5863 87.2909 76.5969 83.5581C76.6068 79.8261 78.7237 78.2772 78.7237 78.2772Z" fill="#4D4C4E"/>
<path d="M55.5153 39.6111L75.0283 40.673V42.9226L61.8844 45.0675L75.0112 46.3872L74.9934 52.3166L41.9208 55.1971L74.9778 57.599L74.9564 64.9837L48.5896 65.9897L74.9457 68.4866L74.9052 82.0249L48.8181 81.2313C49.1548 81.6882 49.5007 82.1381 49.8545 82.5811L76.6421 85.2079L76.6471 80.5159C76.6485 79.3498 77.3632 78.2977 78.4602 77.8499L78.7386 36.6593L113.204 39.7047L113.208 38.0873L76.6941 34.7129L55.5153 39.6111Z" fill="#4D4C4E"/>
<path d="M108.328 95.1159C101.267 99.5172 92.9328 102.068 84 102.068C58.5576 102.068 37.9321 81.4426 37.9321 56.0004C37.9321 30.5582 58.5576 9.93276 84 9.93276C109.442 9.93276 130.068 30.5582 130.068 56.0004C130.068 59.2994 129.714 62.516 129.054 65.6193C129.061 65.7969 129.068 65.9696 129.071 66.1032L129.078 66.2998C129.331 67.0831 129.673 68.6596 129.665 71.46C129.655 75.1878 129.248 76.8398 129.202 77.0153L129.045 77.6119C129.057 77.6294 129.063 77.649 129.074 77.6665C132.231 71.1117 134 63.7623 134 56.0004C134 28.3858 111.614 6 84 6C56.386 6 34 28.3858 34 56.0004C34 83.6142 56.386 106 84 106C94.1652 106 103.616 102.958 111.509 97.747C110.256 97.4155 109.158 96.4937 108.328 95.1159Z" fill="#4D4C4E"/>
<path d="M75.5757 32.8114L113.158 36.5251V40.1798C113.158 40.1798 118.77 42.8706 121.841 47.3724C121.841 47.3724 124.469 47.4639 126.079 49.5644C122.813 28.8019 105.041 12.9307 83.6004 12.9307C65.7238 12.9307 50.3972 23.9646 43.901 39.667L75.5757 32.8114Z" fill="#F69836"/>
<path d="M92.3421 93.3216C92.3421 93.3216 91.5567 97.5322 89.1133 98.8134H80.6503C80.6503 98.8134 77.7126 96.8002 77.7126 93.7489L74.6882 92.5286V87.7086L51.8218 85.2079C59.6807 94.3267 71.0457 100.059 83.688 100.059C91.9774 100.059 99.7146 97.5895 106.277 93.3216H92.3421Z" fill="#F69836"/>
<path d="M2.22656 121.625H4.46094L7 129.539L9.53906 121.625H11.7734L7.90625 133H6.09375L2.22656 121.625ZM0.867188 121.625H3.17969L3.60938 130.344V133H0.867188V121.625ZM10.8203 121.625H13.1406V133H10.3906V130.344L10.8203 121.625ZM22.6703 121.625H25.4125V129.055C25.4125 129.94 25.2276 130.69 24.8578 131.305C24.488 131.914 23.9698 132.375 23.3031 132.688C22.6365 133 21.8526 133.156 20.9516 133.156C20.0609 133.156 19.2771 133 18.6 132.688C17.9281 132.375 17.4021 131.914 17.0219 131.305C16.6469 130.69 16.4594 129.94 16.4594 129.055V121.625H19.2094V129.055C19.2094 129.523 19.2771 129.906 19.4125 130.203C19.5479 130.495 19.7458 130.708 20.0063 130.844C20.2667 130.979 20.5818 131.047 20.9516 131.047C21.3266 131.047 21.6417 130.979 21.8969 130.844C22.1521 130.708 22.3448 130.495 22.475 130.203C22.6052 129.906 22.6703 129.523 22.6703 129.055V121.625ZM36.2547 130.891V133H30.5047V130.891H36.2547ZM31.4813 121.625V133H28.7391V121.625H31.4813ZM42.9094 121.625V133H40.1672V121.625H42.9094ZM46.3312 121.625V123.742H36.8234V121.625H46.3312ZM52.0094 121.625V133H49.275V121.625H52.0094ZM62.0078 129.148H64.7422C64.7057 129.94 64.4922 130.638 64.1016 131.242C63.7109 131.846 63.1693 132.318 62.4766 132.656C61.7891 132.99 60.9766 133.156 60.0391 133.156C59.2786 133.156 58.599 133.029 58 132.773C57.4062 132.518 56.901 132.151 56.4844 131.672C56.0729 131.193 55.7578 130.612 55.5391 129.93C55.3255 129.247 55.2188 128.479 55.2188 127.625V127.008C55.2188 126.154 55.3307 125.385 55.5547 124.703C55.7839 124.016 56.1068 123.432 56.5234 122.953C56.9453 122.469 57.4505 122.099 58.0391 121.844C58.6276 121.589 59.2812 121.461 60 121.461C60.9896 121.461 61.8255 121.638 62.5078 121.992C63.1901 122.346 63.7188 122.833 64.0938 123.453C64.4688 124.068 64.6901 124.768 64.7578 125.555H62.0234C62.013 125.128 61.9401 124.771 61.8047 124.484C61.6693 124.193 61.4557 123.974 61.1641 123.828C60.8724 123.682 60.4844 123.609 60 123.609C59.6615 123.609 59.3672 123.672 59.1172 123.797C58.8672 123.922 58.6589 124.12 58.4922 124.391C58.3255 124.661 58.2005 125.013 58.1172 125.445C58.0391 125.872 58 126.388 58 126.992V127.625C58 128.229 58.0365 128.745 58.1094 129.172C58.1823 129.599 58.2995 129.948 58.4609 130.219C58.6224 130.49 58.8307 130.69 59.0859 130.82C59.3464 130.945 59.6641 131.008 60.0391 131.008C60.4557 131.008 60.8073 130.943 61.0938 130.812C61.3802 130.677 61.6016 130.474 61.7578 130.203C61.9141 129.927 61.9974 129.576 62.0078 129.148ZM72.4594 124.016L69.6859 133H66.7406L70.9203 121.625H72.7875L72.4594 124.016ZM74.7562 133L71.975 124.016L71.6156 121.625H73.5062L77.7094 133H74.7562ZM74.6469 128.758V130.875H68.8109V128.758H74.6469ZM80.1453 121.625H84.6219C85.4969 121.625 86.2573 121.755 86.9031 122.016C87.549 122.276 88.0464 122.661 88.3953 123.172C88.7495 123.682 88.9266 124.312 88.9266 125.062C88.9266 125.714 88.825 126.258 88.6219 126.695C88.4187 127.133 88.1349 127.495 87.7703 127.781C87.4109 128.062 86.9917 128.294 86.5125 128.477L85.6141 128.984H81.8562L81.8406 126.867H84.6219C84.9708 126.867 85.2599 126.805 85.4891 126.68C85.7182 126.555 85.8901 126.378 86.0047 126.148C86.1245 125.914 86.1844 125.635 86.1844 125.312C86.1844 124.984 86.1245 124.703 86.0047 124.469C85.8849 124.234 85.7078 124.055 85.4734 123.93C85.2443 123.805 84.9604 123.742 84.6219 123.742H82.8875V133H80.1453V121.625ZM86.3719 133L83.8562 127.969L86.7625 127.953L89.3094 132.883V133H86.3719ZM101.488 126.922V131.594C101.295 131.807 100.998 132.036 100.597 132.281C100.201 132.521 99.701 132.727 99.0969 132.898C98.4927 133.07 97.7818 133.156 96.9641 133.156C96.2089 133.156 95.524 133.036 94.9094 132.797C94.2948 132.552 93.7661 132.195 93.3234 131.727C92.8859 131.253 92.5474 130.674 92.3078 129.992C92.0734 129.305 91.9563 128.518 91.9563 127.633V127C91.9563 126.115 92.076 125.328 92.3156 124.641C92.5552 123.953 92.8911 123.375 93.3234 122.906C93.7609 122.432 94.274 122.073 94.8625 121.828C95.4563 121.583 96.1073 121.461 96.8156 121.461C97.8625 121.461 98.7141 121.628 99.3703 121.961C100.027 122.289 100.524 122.745 100.863 123.328C101.201 123.906 101.407 124.576 101.48 125.336H98.8469C98.7948 124.961 98.6958 124.643 98.55 124.383C98.4094 124.117 98.2063 123.917 97.9406 123.781C97.675 123.641 97.3313 123.57 96.9094 123.57C96.5813 123.57 96.2818 123.641 96.0109 123.781C95.7453 123.922 95.5188 124.135 95.3313 124.422C95.1438 124.703 94.9979 125.057 94.8938 125.484C94.7948 125.911 94.7453 126.411 94.7453 126.984V127.633C94.7453 128.201 94.7922 128.698 94.8859 129.125C94.9849 129.552 95.1307 129.909 95.3234 130.195C95.5214 130.477 95.7714 130.69 96.0734 130.836C96.3807 130.977 96.7427 131.047 97.1594 131.047C97.451 131.047 97.701 131.023 97.9094 130.977C98.1177 130.924 98.2896 130.862 98.425 130.789C98.5656 130.711 98.6724 130.638 98.7453 130.57V128.805H96.8391V126.922H101.488ZM109.509 124.016L106.736 133H103.791L107.97 121.625H109.838L109.509 124.016ZM111.806 133L109.025 124.016L108.666 121.625H110.556L114.759 133H111.806ZM111.697 128.758V130.875H105.861V128.758H111.697ZM123.055 129.977C123.055 129.799 123.029 129.641 122.977 129.5C122.924 129.354 122.828 129.219 122.688 129.094C122.547 128.969 122.344 128.844 122.078 128.719C121.818 128.589 121.474 128.453 121.047 128.312C120.547 128.146 120.065 127.958 119.602 127.75C119.138 127.536 118.724 127.289 118.359 127.008C117.995 126.721 117.706 126.388 117.492 126.008C117.279 125.622 117.172 125.174 117.172 124.664C117.172 124.174 117.281 123.734 117.5 123.344C117.719 122.948 118.023 122.612 118.414 122.336C118.81 122.055 119.273 121.841 119.805 121.695C120.336 121.544 120.917 121.469 121.547 121.469C122.38 121.469 123.115 121.615 123.75 121.906C124.391 122.193 124.891 122.602 125.25 123.133C125.615 123.659 125.797 124.281 125.797 125H123.07C123.07 124.714 123.01 124.461 122.891 124.242C122.776 124.023 122.602 123.852 122.367 123.727C122.133 123.602 121.839 123.539 121.484 123.539C121.141 123.539 120.852 123.591 120.617 123.695C120.383 123.799 120.206 123.94 120.086 124.117C119.966 124.289 119.906 124.479 119.906 124.688C119.906 124.859 119.953 125.016 120.047 125.156C120.146 125.292 120.284 125.419 120.461 125.539C120.643 125.659 120.862 125.773 121.117 125.883C121.378 125.992 121.669 126.099 121.992 126.203C122.596 126.396 123.133 126.612 123.602 126.852C124.076 127.086 124.474 127.354 124.797 127.656C125.125 127.953 125.372 128.292 125.539 128.672C125.711 129.052 125.797 129.482 125.797 129.961C125.797 130.471 125.698 130.924 125.5 131.32C125.302 131.716 125.018 132.052 124.648 132.328C124.279 132.599 123.836 132.805 123.32 132.945C122.805 133.086 122.229 133.156 121.594 133.156C121.01 133.156 120.435 133.083 119.867 132.938C119.305 132.786 118.794 132.557 118.336 132.25C117.878 131.938 117.51 131.539 117.234 131.055C116.964 130.565 116.828 129.984 116.828 129.312H119.578C119.578 129.646 119.622 129.927 119.711 130.156C119.799 130.385 119.93 130.57 120.102 130.711C120.273 130.846 120.484 130.945 120.734 131.008C120.984 131.065 121.271 131.094 121.594 131.094C121.943 131.094 122.224 131.044 122.438 130.945C122.651 130.841 122.807 130.706 122.906 130.539C123.005 130.367 123.055 130.18 123.055 129.977ZM139.216 124.016L136.442 133H133.497L137.677 121.625H139.544L139.216 124.016ZM141.512 133L138.731 124.016L138.372 121.625H140.262L144.466 133H141.512ZM141.403 128.758V130.875H135.567V128.758H141.403ZM151.441 129.141H148.613V127.023H151.441C151.826 127.023 152.139 126.958 152.378 126.828C152.618 126.698 152.792 126.518 152.902 126.289C153.016 126.055 153.073 125.792 153.073 125.5C153.073 125.188 153.016 124.898 152.902 124.633C152.792 124.367 152.618 124.154 152.378 123.992C152.139 123.826 151.826 123.742 151.441 123.742H149.644V133H146.902V121.625H151.441C152.352 121.625 153.136 121.792 153.792 122.125C154.454 122.458 154.961 122.917 155.316 123.5C155.67 124.078 155.847 124.74 155.847 125.484C155.847 126.219 155.67 126.859 155.316 127.406C154.961 127.953 154.454 128.38 153.792 128.688C153.136 128.99 152.352 129.141 151.441 129.141ZM163.462 129.141H160.634V127.023H163.462C163.848 127.023 164.16 126.958 164.4 126.828C164.64 126.698 164.814 126.518 164.923 126.289C165.038 126.055 165.095 125.792 165.095 125.5C165.095 125.188 165.038 124.898 164.923 124.633C164.814 124.367 164.64 124.154 164.4 123.992C164.16 123.826 163.848 123.742 163.462 123.742H161.666V133H158.923V121.625H163.462C164.374 121.625 165.158 121.792 165.814 122.125C166.476 122.458 166.983 122.917 167.337 123.5C167.692 124.078 167.869 124.74 167.869 125.484C167.869 126.219 167.692 126.859 167.337 127.406C166.983 127.953 166.476 128.38 165.814 128.688C165.158 128.99 164.374 129.141 163.462 129.141Z" fill="#4D4C4E"/>
</svg>
